<svg xmlns="http://www.w3.org/2000/svg" xmlns:xlink="http://www.w3.org/1999/xlink" width="2000" zoomAndPan="magnify" viewBox="0 0 1500 1499.999933" height="2000" preserveAspectRatio="xMidYMid meet" version="1.0"><defs><g/><clipPath id="1d02120fca"><path d="M 320.945312 310.441406 L 1218 310.441406 L 1218 1207.226562 L 320.945312 1207.226562 Z M 320.945312 310.441406 " clip-rule="nonzero"/></clipPath><clipPath id="78198ef7fa"><path d="M 1217.867188 385.410156 L 1217.867188 1132.257812 C 1217.867188 1152.140625 1209.96875 1171.207031 1195.90625 1185.265625 C 1181.847656 1199.328125 1162.78125 1207.226562 1142.898438 1207.226562 L 395.914062 1207.226562 C 376.03125 1207.226562 356.960938 1199.328125 342.902344 1185.265625 C 328.84375 1171.207031 320.945312 1152.140625 320.945312 1132.257812 L 320.945312 385.410156 C 320.945312 365.527344 328.84375 346.457031 342.902344 332.398438 C 356.960938 318.339844 376.03125 310.441406 395.914062 310.441406 L 1142.898438 310.441406 C 1162.78125 310.441406 1181.847656 318.339844 1195.90625 332.398438 C 1209.96875 346.457031 1217.867188 365.527344 1217.867188 385.410156 Z M 1217.867188 385.410156 " clip-rule="nonzero"/></clipPath><clipPath id="7b1acd5aff"><path d="M 0.945312 0.441406 L 898 0.441406 L 898 897.226562 L 0.945312 897.226562 Z M 0.945312 0.441406 " clip-rule="nonzero"/></clipPath><clipPath id="b558e82f1a"><path d="M 897.867188 75.410156 L 897.867188 822.257812 C 897.867188 842.140625 889.96875 861.207031 875.90625 875.265625 C 861.847656 889.328125 842.78125 897.226562 822.898438 897.226562 L 75.914062 897.226562 C 56.03125 897.226562 36.960938 889.328125 22.902344 875.265625 C 8.84375 861.207031 0.945312 842.140625 0.945312 822.257812 L 0.945312 75.410156 C 0.945312 55.527344 8.84375 36.457031 22.902344 22.398438 C 36.960938 8.339844 56.03125 0.441406 75.914062 0.441406 L 822.898438 0.441406 C 842.78125 0.441406 861.847656 8.339844 875.90625 22.398438 C 889.96875 36.457031 897.867188 55.527344 897.867188 75.410156 Z M 897.867188 75.410156 " clip-rule="nonzero"/></clipPath><clipPath id="d42f6c624e"><rect x="0" width="898" y="0" height="898"/></clipPath><clipPath id="5ef9fe0632"><rect x="0" width="507" y="0" height="973"/></clipPath></defs><g clip-path="url(#1d02120fca)"><g clip-path="url(#78198ef7fa)"><g transform="matrix(1, 0, 0, 1, 320, 310)"><g clip-path="url(#d42f6c624e)"><g clip-path="url(#7b1acd5aff)"><g clip-path="url(#b558e82f1a)"><path fill="#0637a4" d="M 0.945312 0.441406 L 897.730469 0.441406 L 897.730469 897.226562 L 0.945312 897.226562 Z M 0.945312 0.441406 " fill-opacity="1" fill-rule="nonzero"/></g></g></g></g></g></g><path fill="#ff8c00" d="M 1046.101562 811.402344 C 1048.382812 832.742188 1050.703125 854.078125 1051.964844 875.515625 C 1053.085938 884.578125 1051.007812 895.207031 1058.207031 902.195312 C 1068.910156 913.722656 1090.359375 904.972656 1089.578125 889.128906 C 1088.28125 866.082031 1086.433594 843.054688 1084.078125 820.089844 C 1082.003906 799.25 1078.890625 778.492188 1078.378906 757.535156 C 1080.144531 743.296875 1069.910156 727.945312 1054.292969 731.097656 C 1045.089844 733.015625 1036.550781 737.742188 1027.777344 741.0625 C 1004.484375 750.65625 981.550781 761.101562 959.046875 772.417969 C 946.105469 776.394531 937.527344 791.488281 946.71875 803.257812 C 955.242188 814.285156 968.289062 810.269531 978.230469 803.847656 C 991.8125 797.039062 1005.609375 790.703125 1019.5 784.582031 C 994.742188 823.863281 969.488281 862.828125 944.089844 901.699219 C 944.027344 880.765625 934.828125 854.097656 910.152344 853.753906 C 881.441406 854.542969 854.015625 883.480469 832.882812 901.078125 C 813.675781 919.183594 795.667969 938.640625 779.183594 959.261719 C 769.226562 972.855469 749.9375 993.253906 764.757812 1009.636719 C 771.621094 1016.734375 783.9375 1016.710938 790.765625 1009.578125 C 795.410156 1005.269531 795.128906 998.882812 799.027344 994.175781 C 806.503906 983.296875 815.109375 973.230469 823.746094 963.265625 C 848.167969 936.4375 873.949219 909.597656 905.867188 891.632812 C 912.128906 912.496094 899.519531 950.871094 915.996094 964.894531 C 937.160156 980.960938 954.425781 953.046875 964.558594 937.394531 C 978.910156 915.902344 993.007812 894.238281 1007.011719 872.515625 C 1020.09375 852.179688 1033.148438 831.824219 1046.105469 811.40625 Z M 1046.101562 811.402344 " fill-opacity="1" fill-rule="nonzero"/><g transform="matrix(1, 0, 0, 1, 413, 280)"><g clip-path="url(#5ef9fe0632)"><g fill="#ffffff" fill-opacity="1"><g transform="translate(36.342828, 628.078197)"><g><path d="M 134.703125 46.375 C 134.703125 37.507812 134.363281 25.953125 133.6875 11.703125 C 133.019531 -2.546875 132.144531 -18.273438 131.0625 -35.484375 C 129.988281 -52.691406 128.78125 -70.972656 127.4375 -90.328125 C 126.09375 -109.691406 124.613281 -128.914062 123 -148 C 121.382812 -167.09375 119.835938 -185.578125 118.359375 -203.453125 C 116.890625 -221.335938 115.484375 -237.539062 114.140625 -252.0625 C 111.984375 -272.757812 109.019531 -287.945312 105.25 -297.625 C 101.488281 -307.3125 95.304688 -312.15625 86.703125 -312.15625 C 78.640625 -312.15625 73.332031 -309.867188 70.78125 -305.296875 C 68.226562 -300.722656 66.75 -295.078125 66.34375 -288.359375 C 65.9375 -281.640625 65.800781 -274.3125 65.9375 -266.375 C 66.070312 -258.445312 64.863281 -251.117188 62.3125 -244.390625 C 59.757812 -237.671875 54.984375 -232.023438 47.984375 -227.453125 C 40.992188 -222.890625 30.242188 -220.609375 15.734375 -220.609375 C 5.515625 -220.609375 -3.222656 -224.84375 -10.484375 -233.3125 C -17.742188 -241.78125 -21.375 -254.078125 -21.375 -270.203125 C -21.375 -292.796875 -14.71875 -313.300781 -1.40625 -331.71875 C 11.894531 -350.132812 30.644531 -365.859375 54.84375 -378.890625 C 79.039062 -391.929688 108.210938 -402.082031 142.359375 -409.34375 C 176.503906 -416.601562 214.414062 -420.234375 256.09375 -420.234375 C 285.9375 -420.234375 313.492188 -416.9375 338.765625 -410.34375 C 364.046875 -403.757812 385.894531 -394.617188 404.3125 -382.921875 C 422.726562 -371.234375 437.175781 -357.390625 447.65625 -341.390625 C 458.144531 -325.390625 463.390625 -307.984375 463.390625 -289.171875 C 463.390625 -267.921875 457.203125 -247.617188 444.828125 -228.265625 C 432.460938 -208.910156 415.457031 -191.164062 393.8125 -175.03125 C 372.175781 -158.894531 346.703125 -144.84375 317.390625 -132.875 C 288.085938 -120.914062 256.632812 -111.578125 223.03125 -104.859375 C 213.613281 -103.242188 208.90625 -97.460938 208.90625 -87.515625 C 208.90625 -80.796875 209.375 -72.394531 210.3125 -62.3125 C 211.257812 -52.226562 212.203125 -41.671875 213.140625 -30.640625 C 214.078125 -19.617188 215.015625 -8.734375 215.953125 2.015625 C 216.898438 12.765625 217.375 22.3125 217.375 30.65625 C 217.375 45.707031 213.878906 56.457031 206.890625 62.90625 C 199.898438 69.363281 189.550781 72.59375 175.84375 72.59375 C 162.9375 72.59375 152.851562 70.375 145.59375 65.9375 C 138.332031 61.5 134.703125 54.976562 134.703125 46.375 Z M 379.90625 -277.46875 C 379.90625 -286.613281 376.003906 -295.351562 368.203125 -303.6875 C 360.410156 -312.019531 349.925781 -319.410156 336.75 -325.859375 C 323.570312 -332.316406 308.3125 -337.425781 290.96875 -341.1875 C 273.632812 -344.945312 255.421875 -346.828125 236.328125 -346.828125 C 226.921875 -346.828125 219.054688 -346.488281 212.734375 -345.8125 C 206.421875 -345.144531 201.378906 -344.003906 197.609375 -342.390625 C 193.847656 -340.785156 191.226562 -338.703125 189.75 -336.140625 C 188.269531 -333.585938 187.53125 -330.296875 187.53125 -326.265625 C 187.53125 -323.578125 187.929688 -317.328125 188.734375 -307.515625 C 189.546875 -297.703125 190.625 -286.34375 191.96875 -273.4375 C 193.3125 -260.53125 194.722656 -247.019531 196.203125 -232.90625 C 197.679688 -218.789062 199.226562 -206.085938 200.84375 -194.796875 C 201.644531 -186.460938 202.785156 -180.945312 204.265625 -178.25 C 205.742188 -175.5625 208.097656 -174.21875 211.328125 -174.21875 C 220.472656 -174.21875 230.957031 -175.765625 242.78125 -178.859375 C 254.613281 -181.953125 266.78125 -186.117188 279.28125 -191.359375 C 291.78125 -196.609375 304.015625 -202.660156 315.984375 -209.515625 C 327.953125 -216.367188 338.707031 -223.625 348.25 -231.28125 C 357.789062 -238.945312 365.453125 -246.742188 371.234375 -254.671875 C 377.015625 -262.609375 379.90625 -270.207031 379.90625 -277.46875 Z M 379.90625 -277.46875 "/></g></g></g></g></g></svg>